<?xml version="1.0" encoding="UTF-8" standalone="no"?>
<svg
   xmlns:dc="http://purl.org/dc/elements/1.1/"
   xmlns:cc="http://creativecommons.org/ns#"
   xmlns:rdf="http://www.w3.org/1999/02/22-rdf-syntax-ns#"
   xmlns:svg="http://www.w3.org/2000/svg"
   xmlns="http://www.w3.org/2000/svg"
   xmlns:sodipodi="http://sodipodi.sourceforge.net/DTD/sodipodi-0.dtd"
   xmlns:inkscape="http://www.inkscape.org/namespaces/inkscape"
   version="1.1"
   id="Layer_1"
   x="0px"
   y="0px"
   viewBox="0 0 512 512"
   style="enable-background:new 0 0 512 512;"
   xml:space="preserve"
   sodipodi:docname="saturno3.svg"
   inkscape:version="1.0.2 (e86c870879, 2021-01-15)"><metadata
   id="metadata49"><rdf:RDF><cc:Work
       rdf:about=""><dc:format>image/svg+xml</dc:format><dc:type
         rdf:resource="http://purl.org/dc/dcmitype/StillImage" /></cc:Work></rdf:RDF></metadata><defs
   id="defs47" /><sodipodi:namedview
   pagecolor="#ffffff"
   bordercolor="#666666"
   borderopacity="1"
   objecttolerance="10"
   gridtolerance="10"
   guidetolerance="10"
   inkscape:pageopacity="0"
   inkscape:pageshadow="2"
   inkscape:window-width="1280"
   inkscape:window-height="970"
   id="namedview45"
   showgrid="false"
   inkscape:zoom="0.704694"
   inkscape:cx="103.56732"
   inkscape:cy="434.43642"
   inkscape:window-x="0"
   inkscape:window-y="30"
   inkscape:window-maximized="1"
   inkscape:current-layer="Layer_1" />
<g
   id="g6"
   style="fill:#db2b39;fill-opacity:1">
	<g
   id="g4"
   style="fill:#db2b39;fill-opacity:1">
		<path
   d="M348.434,163.708c-3.734-3.734-7.656-7.209-11.741-10.426L237.6,252.375l-22.167-22.167l93.611-93.61    c-16.462-7.305-34.422-11.147-52.972-11.147c-34.89,0-67.691,13.587-92.362,38.257c-50.928,50.928-50.928,133.796,0,184.724    c9.522,9.521,20.258,17.382,31.853,23.458c30.707-23.901,62.378-51.992,93.358-82.971c30.966-30.965,59.045-62.622,82.94-93.318    C365.874,184.117,358.067,173.34,348.434,163.708z M182.183,307.791l-22.167-22.167l33.25-33.249l22.167,22.167L182.183,307.791z"
   id="path2"
   style="fill:#db2b39;fill-opacity:1" />
	</g>
</g>
<g
   id="g12"
   style="fill:#db2b39;fill-opacity:1">
	<g
   id="g10"
   style="fill:#db2b39;fill-opacity:1">
		<path
   d="M498.163,13.98c-18.75-18.75-51.213-18.639-96.488,0.332c-37.377,15.661-81.829,43.493-128.857,80.645    c13.637,1.392,26.902,4.484,39.556,9.164c37.211-27.67,71.881-48.52,101.417-60.897c36.002-15.086,55.739-13.546,62.207-7.078    c8.776,8.774,7.875,39.106-23.542,95.709c-30.459,54.877-80.663,118.529-141.366,179.23    c-60.702,60.701-124.354,110.906-179.23,141.365c-56.603,31.417-86.935,32.316-95.709,23.542    c-6.468-6.468-8.005-26.206,7.078-62.205c12.386-29.56,33.26-64.262,60.963-101.507c-4.723-12.822-7.773-26.124-9.151-39.567    c-37.192,47.065-65.053,91.555-80.725,128.959c-18.971,45.274-19.083,77.737-0.332,96.487C23.226,507.401,36.003,512,52.016,512    c24.492-0.001,56.547-10.765,95.058-32.141c57.355-31.836,123.477-83.901,186.183-146.608    c62.707-62.707,114.772-128.827,146.608-186.184c0.575-1.036,1.13-2.054,1.67-3.061C515.39,81.911,521.164,36.98,498.163,13.98z"
   id="path8"
   style="fill:#db2b39;fill-opacity:1" />
	</g>
</g>
<g
   id="g14">
</g>
<g
   id="g16">
</g>
<g
   id="g18">
</g>
<g
   id="g20">
</g>
<g
   id="g22">
</g>
<g
   id="g24">
</g>
<g
   id="g26">
</g>
<g
   id="g28">
</g>
<g
   id="g30">
</g>
<g
   id="g32">
</g>
<g
   id="g34">
</g>
<g
   id="g36">
</g>
<g
   id="g38">
</g>
<g
   id="g40">
</g>
<g
   id="g42">
</g>
<ellipse
   style="opacity:0.999;fill:#db2b39;fill-opacity:1;stroke:none;stroke-width:1.7"
   id="path880"
   cx="49.43544"
   cy="98.135773"
   rx="31.490721"
   ry="31.426119" /><ellipse
   style="opacity:0.999;fill:#db2b39;fill-opacity:1;stroke:none;stroke-width:1.47812"
   id="path880-3"
   cx="335.11374"
   cy="461.74857"
   rx="27.214369"
   ry="27.491409" /></svg>
